<?xml version="1.0" standalone="no"?>
 <!DOCTYPE svg PUBLIC "-//W3C//DTD SVG 1.1//EN" 
 "http://www.w3.org/Graphics/SVG/1.1/DTD/svg11.dtd"> 
<svg
  xmlns:svg="http://www.w3.org/2000/svg"
  xmlns="http://www.w3.org/2000/svg"
  xmlns:xlink="http://www.w3.org/1999/xlink"
  version="1.1"
  width="12.491720cm" height="10.241280cm" viewBox="0 0 124917200 102412800">
<title>SVG Picture created as Splitimsi-Edge_Cuts.svg date 2022/08/26 20:45:09 </title>
  <desc>Picture generated by PCBNEW </desc>
<g style="fill:#000000; fill-opacity:1.000000;stroke:#000000; stroke-opacity:1.000000;
stroke-linecap:round; stroke-linejoin:round;"
 transform="translate(0 0) scale(1 1)">
</g>
<g style="fill:#000000; fill-opacity:0.0; 
stroke:#000000; stroke-width:0.000000; stroke-opacity:1; 
stroke-linecap:round; stroke-linejoin:round;">
</g>
<g style="fill:#000000; fill-opacity:0.0; 
stroke:#000000; stroke-width:150000.000000; stroke-opacity:1; 
stroke-linecap:round; stroke-linejoin:round;">
<path d="M4130000.028200 735658.119368 A3289063.000000 3289063.000000 0.0 0 0 885656.246464 3945000.005954" />
<path d="M122870051.941483 3994999.308076 A3303345.000000 3303345.000000 0.0 0 0 119569999.999671 735656.362256" />
<path d="M885656 3945000
L885656 98780000
" />
<path d="M4185656 102039344
L119645000 102045000
" />
<path d="M885647.521746 98780000.112838 A3303305.000000 3303305.000000 0.0 0 0 4185656.000333 102039343.634093" />
<path d="M122870000 98720000
L122870000 3995000
" />
<path d="M119645001.712442 102045054.431768 A3329701.000000 3329701.000000 0.0 0 0 122869999.648527 98719999.999683" />
<path d="M4130000 735656
L119570000 735656
" />
</g>
<g style="fill:#000000; fill-opacity:0.0; 
stroke:#000000; stroke-width:120000.000000; stroke-opacity:1; 
stroke-linecap:round; stroke-linejoin:round;">
<path d="M87633633 74509178
L87633633 77509178
" />
<path d="M91033633 74509178
L87633633 74509178
" />
<path d="M91033633 77509178
L91033633 74509178
" />
<path d="M87633633 77509178
L91033633 77509178
" />
<path d="M52933633 55459178
L49533633 55459178
" />
<path d="M49533633 55459178
L49533633 58459178
" />
<path d="M49533633 58459178
L52933633 58459178
" />
<path d="M52933633 58459178
L52933633 55459178
" />
<path d="M71983633 39409178
L71983633 36409178
" />
<path d="M68583633 36409178
L68583633 39409178
" />
<path d="M68583633 39409178
L71983633 39409178
" />
<path d="M71983633 36409178
L68583633 36409178
" />
<path d="M71983633 96559178
L71983633 93559178
" />
<path d="M68583633 96559178
L71983633 96559178
" />
<path d="M71983633 93559178
L68583633 93559178
" />
<path d="M68583633 93559178
L68583633 96559178
" />
<path d="M14833633 17359178
L11433633 17359178
" />
<path d="M14833633 20359178
L14833633 17359178
" />
<path d="M11433633 20359178
L14833633 20359178
" />
<path d="M11433633 17359178
L11433633 20359178
" />
<path d="M91033633 20359178
L91033633 17359178
" />
<path d="M91033633 17359178
L87633633 17359178
" />
<path d="M87633633 20359178
L91033633 20359178
" />
<path d="M87633633 17359178
L87633633 20359178
" />
<path d="M33883633 36409178
L30483633 36409178
" />
<path d="M30483633 39409178
L33883633 39409178
" />
<path d="M33883633 39409178
L33883633 36409178
" />
<path d="M30483633 36409178
L30483633 39409178
" />
<path d="M14833633 77509178
L14833633 74509178
" />
<path d="M11433633 74509178
L11433633 77509178
" />
<path d="M14833633 74509178
L11433633 74509178
" />
<path d="M11433633 77509178
L14833633 77509178
" />
<path d="M106683633 74509178
L106683633 77509178
" />
<path d="M110083633 77509178
L110083633 74509178
" />
<path d="M110083633 74509178
L106683633 74509178
" />
<path d="M106683633 77509178
L110083633 77509178
" />
<path d="M52933633 77509178
L52933633 74509178
" />
<path d="M49533633 77509178
L52933633 77509178
" />
<path d="M52933633 74509178
L49533633 74509178
" />
<path d="M49533633 74509178
L49533633 77509178
" />
<path d="M91033633 58459178
L91033633 55459178
" />
<path d="M91033633 55459178
L87633633 55459178
" />
<path d="M87633633 58459178
L91033633 58459178
" />
<path d="M87633633 55459178
L87633633 58459178
" />
<path d="M11433633 39409178
L14833633 39409178
" />
<path d="M14833633 39409178
L14833633 36409178
" />
<path d="M11433633 36409178
L11433633 39409178
" />
<path d="M14833633 36409178
L11433633 36409178
" />
<path d="M33883633 20359178
L33883633 17359178
" />
<path d="M33883633 17359178
L30483633 17359178
" />
<path d="M30483633 17359178
L30483633 20359178
" />
<path d="M30483633 20359178
L33883633 20359178
" />
<path d="M68583633 17359178
L68583633 20359178
" />
<path d="M71983633 17359178
L68583633 17359178
" />
<path d="M68583633 20359178
L71983633 20359178
" />
<path d="M71983633 20359178
L71983633 17359178
" />
<path d="M33883633 58459178
L33883633 55459178
" />
<path d="M33883633 55459178
L30483633 55459178
" />
<path d="M30483633 55459178
L30483633 58459178
" />
<path d="M30483633 58459178
L33883633 58459178
" />
<path d="M71983633 58459178
L71983633 55459178
" />
<path d="M68583633 55459178
L68583633 58459178
" />
<path d="M71983633 55459178
L68583633 55459178
" />
<path d="M68583633 58459178
L71983633 58459178
" />
<path d="M49533633 39409178
L52933633 39409178
" />
<path d="M52933633 36409178
L49533633 36409178
" />
<path d="M52933633 39409178
L52933633 36409178
" />
<path d="M49533633 36409178
L49533633 39409178
" />
<path d="M30483633 96559178
L33883633 96559178
" />
<path d="M33883633 93559178
L30483633 93559178
" />
<path d="M30483633 93559178
L30483633 96559178
" />
<path d="M33883633 96559178
L33883633 93559178
" />
<path d="M52933633 20359178
L52933633 17359178
" />
<path d="M52933633 17359178
L49533633 17359178
" />
<path d="M49533633 17359178
L49533633 20359178
" />
<path d="M49533633 20359178
L52933633 20359178
" />
<path d="M87633633 96559178
L91033633 96559178
" />
<path d="M87633633 93559178
L87633633 96559178
" />
<path d="M91033633 96559178
L91033633 93559178
" />
<path d="M91033633 93559178
L87633633 93559178
" />
<path d="M33883633 74509178
L30483633 74509178
" />
<path d="M33883633 77509178
L33883633 74509178
" />
<path d="M30483633 77509178
L33883633 77509178
" />
<path d="M30483633 74509178
L30483633 77509178
" />
<path d="M110083633 93559178
L106683633 93559178
" />
<path d="M106683633 96559178
L110083633 96559178
" />
<path d="M106683633 93559178
L106683633 96559178
" />
<path d="M110083633 96559178
L110083633 93559178
" />
<path d="M14833633 55459178
L11433633 55459178
" />
<path d="M11433633 55459178
L11433633 58459178
" />
<path d="M14833633 58459178
L14833633 55459178
" />
<path d="M11433633 58459178
L14833633 58459178
" />
<path d="M11433633 93559178
L11433633 96559178
" />
<path d="M14833633 93559178
L11433633 93559178
" />
<path d="M14833633 96559178
L14833633 93559178
" />
<path d="M11433633 96559178
L14833633 96559178
" />
<path d="M91033633 39409178
L91033633 36409178
" />
<path d="M87633633 39409178
L91033633 39409178
" />
<path d="M91033633 36409178
L87633633 36409178
" />
<path d="M87633633 36409178
L87633633 39409178
" />
<path d="M71983633 74509178
L68583633 74509178
" />
<path d="M68583633 77509178
L71983633 77509178
" />
<path d="M71983633 77509178
L71983633 74509178
" />
<path d="M68583633 74509178
L68583633 77509178
" />
<path d="M52933633 96559178
L52933633 93559178
" />
<path d="M49533633 96559178
L52933633 96559178
" />
<path d="M52933633 93559178
L49533633 93559178
" />
<path d="M49533633 93559178
L49533633 96559178
" />
<g >
</g>
<g >
</g>
<g >
</g>
<g >
</g>
<g >
</g>
<g >
</g>
<g >
</g>
<g >
</g>
<g >
</g>
<g >
</g>
<g >
</g>
<g >
</g>
<g >
</g>
<g >
</g>
<g >
</g>
<g >
</g>
<g >
</g>
<g >
</g>
<g >
</g>
<g >
</g>
<g >
</g>
<g >
</g>
<g >
</g>
<g >
</g>
<g >
</g>
<g >
</g>
<g >
</g>
<g >
</g>
<g >
</g>
<g >
</g>
<g >
</g>
<g >
</g>
<g >
</g>
<g >
</g>
<g >
</g>
<g >
</g>
<g >
</g>
<g >
</g>
<g >
</g>
<g >
</g>
<g >
</g>
<g >
</g>
<g >
</g>
</g> 
</svg>
