%TF.GenerationSoftware,KiCad,Pcbnew,(6.0.4-0)*%
%TF.CreationDate,2022-10-04T18:38:15+03:00*%
%TF.ProjectId,Splitimsi,53706c69-7469-46d7-9369-2e6b69636164,rev?*%
%TF.SameCoordinates,Original*%
%TF.FileFunction,Profile,NP*%
%FSLAX46Y46*%
G04 Gerber Fmt 4.6, Leading zero omitted, Abs format (unit mm)*
G04 Created by KiCad (PCBNEW (6.0.4-0)) date 2022-10-04 18:38:15*
%MOMM*%
%LPD*%
G01*
G04 APERTURE LIST*
%TA.AperFunction,Profile*%
%ADD10C,0.100000*%
%TD*%
%TA.AperFunction,Profile*%
%ADD11C,0.120000*%
%TD*%
G04 APERTURE END LIST*
D10*
X96773492Y-16462893D02*
X96773492Y-15762893D01*
X141002893Y-114412893D02*
X141002893Y-68337893D01*
X59052893Y-115212893D02*
X59052893Y-115912893D01*
X99802893Y-114212893D02*
X97802893Y-114212893D01*
X100802893Y-115212893D02*
X100802893Y-115912893D01*
X139195786Y-113505786D02*
G75*
G03*
X139195786Y-113505786I-1100000J0D01*
G01*
X96773507Y-16462893D02*
G75*
G03*
X97773492Y-17462893I999993J-7D01*
G01*
X96302893Y-116412893D02*
X63552893Y-116412893D01*
X96802893Y-115212893D02*
X96802893Y-115912893D01*
X63052893Y-16462893D02*
X63052893Y-15762893D01*
X58552893Y-15262893D02*
X20852893Y-15262893D01*
X21052907Y-64837893D02*
G75*
G03*
X20052893Y-63837893I-1000007J-7D01*
G01*
X18852893Y-81712893D02*
X18852893Y-76712893D01*
X139802893Y-63837893D02*
G75*
G03*
X138802893Y-64837893I7J-1000007D01*
G01*
X20052893Y-67837893D02*
X19352893Y-67837893D01*
X100802907Y-115212893D02*
G75*
G03*
X99802893Y-114212893I-1000007J-7D01*
G01*
X96773507Y-15762893D02*
G75*
G03*
X96273492Y-15262893I-500007J-7D01*
G01*
X97802893Y-114212893D02*
G75*
G03*
X96802893Y-115212893I7J-1000007D01*
G01*
X99773492Y-17462893D02*
X97773492Y-17462893D01*
X141002893Y-17262893D02*
X141002893Y-63337893D01*
X18852893Y-81712893D02*
X18852893Y-114412893D01*
X62052893Y-17462893D02*
G75*
G03*
X63052893Y-16462893I7J999993D01*
G01*
X19352893Y-67837893D02*
G75*
G03*
X18852893Y-68337893I7J-500007D01*
G01*
X60802895Y-57162892D02*
G75*
G03*
X60802895Y-57162892I-1100000J0D01*
G01*
X63052907Y-115912893D02*
G75*
G03*
X63552893Y-116412893I499993J-7D01*
G01*
X18852907Y-63337893D02*
G75*
G03*
X19352893Y-63837893I499993J-7D01*
G01*
X63052907Y-115212893D02*
G75*
G03*
X62052893Y-114212893I-1000007J-7D01*
G01*
X140502893Y-63837893D02*
G75*
G03*
X141002893Y-63337893I7J499993D01*
G01*
X141002907Y-17262893D02*
G75*
G03*
X139002893Y-15262893I-2000007J-7D01*
G01*
X98902892Y-76162894D02*
G75*
G03*
X98902892Y-76162894I-1100000J0D01*
G01*
X60052893Y-114212893D02*
X62052893Y-114212893D01*
X21052894Y-17462893D02*
G75*
G03*
X21052894Y-17462893I-1J0D01*
G01*
X139195786Y-18170000D02*
G75*
G03*
X139195786Y-18170000I-1100000J0D01*
G01*
X58552893Y-116412893D02*
G75*
G03*
X59052893Y-115912893I7J499993D01*
G01*
X138802893Y-66837893D02*
X138802893Y-64837893D01*
X60052893Y-114212893D02*
G75*
G03*
X59052893Y-115212893I7J-1000007D01*
G01*
X139002893Y-15262893D02*
X101273492Y-15262893D01*
X20052893Y-63837893D02*
X19352893Y-63837893D01*
X20852893Y-116412893D02*
X58552893Y-116412893D01*
X20852893Y-15262893D02*
G75*
G03*
X18852893Y-17262893I7J-2000007D01*
G01*
X63552893Y-15262893D02*
G75*
G03*
X63052893Y-15762893I7J-500007D01*
G01*
X18852907Y-114412893D02*
G75*
G03*
X20852893Y-116412893I1999993J-7D01*
G01*
X100802907Y-115912893D02*
G75*
G03*
X101302893Y-116412893I499993J-7D01*
G01*
X101273492Y-15262892D02*
G75*
G03*
X100773492Y-15762893I8J-500008D01*
G01*
X139002893Y-116412893D02*
X101302893Y-116412893D01*
X22860000Y-113505786D02*
G75*
G03*
X22860000Y-113505786I-1100000J0D01*
G01*
X22860000Y-18170000D02*
G75*
G03*
X22860000Y-18170000I-1100000J0D01*
G01*
X139802893Y-67837893D02*
X140502893Y-67837893D01*
X99773492Y-17462892D02*
G75*
G03*
X100773492Y-16462893I8J999992D01*
G01*
X141002907Y-68337893D02*
G75*
G03*
X140502893Y-67837893I-500007J-7D01*
G01*
X138802907Y-66837893D02*
G75*
G03*
X139802893Y-67837893I999993J-7D01*
G01*
X18852893Y-17262893D02*
X18852893Y-63337893D01*
X59052893Y-16462893D02*
X59052893Y-15762893D01*
X100773492Y-16462893D02*
X100773492Y-15762893D01*
X139002893Y-116412893D02*
G75*
G03*
X141002893Y-114412893I7J1999993D01*
G01*
X96273492Y-15262893D02*
X63552893Y-15262893D01*
X21052893Y-64837893D02*
X21052893Y-66837893D01*
X18852893Y-68337893D02*
X18852893Y-76712893D01*
X59052907Y-15762893D02*
G75*
G03*
X58552893Y-15262893I-500007J-7D01*
G01*
X63052893Y-115212893D02*
X63052893Y-115912893D01*
X139802893Y-63837893D02*
X140502893Y-63837893D01*
X20052893Y-67837893D02*
G75*
G03*
X21052893Y-66837893I7J999993D01*
G01*
X59052907Y-16462893D02*
G75*
G03*
X60052893Y-17462893I999993J-7D01*
G01*
X96302893Y-116412893D02*
G75*
G03*
X96802893Y-115912893I7J499993D01*
G01*
X60052893Y-17462893D02*
X62052893Y-17462893D01*
D11*
%TO.C,SW21*%
X70913633Y-92539178D02*
X70913633Y-89539178D01*
X67513633Y-89539178D02*
X67513633Y-92539178D01*
X67513633Y-92539178D02*
X70913633Y-92539178D01*
X70913633Y-89539178D02*
X67513633Y-89539178D01*
%TO.C,SW16*%
X89963633Y-73489178D02*
X89963633Y-70489178D01*
X86563633Y-70489178D02*
X86563633Y-73489178D01*
X86563633Y-73489178D02*
X89963633Y-73489178D01*
X89963633Y-70489178D02*
X86563633Y-70489178D01*
%TO.C,SW13*%
X29413633Y-73489178D02*
X32813633Y-73489178D01*
X32813633Y-70489178D02*
X29413633Y-70489178D01*
X29413633Y-70489178D02*
X29413633Y-73489178D01*
X32813633Y-73489178D02*
X32813633Y-70489178D01*
%TO.C,SW9*%
X67513633Y-54439178D02*
X70913633Y-54439178D01*
X67513633Y-51439178D02*
X67513633Y-54439178D01*
X70913633Y-54439178D02*
X70913633Y-51439178D01*
X70913633Y-51439178D02*
X67513633Y-51439178D01*
%TO.C,SW26*%
X48463633Y-108589178D02*
X48463633Y-111589178D01*
X51863633Y-111589178D02*
X51863633Y-108589178D01*
X51863633Y-108589178D02*
X48463633Y-108589178D01*
X48463633Y-111589178D02*
X51863633Y-111589178D01*
%TO.C,SW1*%
X29413633Y-35389178D02*
X32813633Y-35389178D01*
X29413633Y-32389178D02*
X29413633Y-35389178D01*
X32813633Y-32389178D02*
X29413633Y-32389178D01*
X32813633Y-35389178D02*
X32813633Y-32389178D01*
%TO.C,SW5*%
X105613633Y-32389178D02*
X105613633Y-35389178D01*
X105613633Y-35389178D02*
X109013633Y-35389178D01*
X109013633Y-35389178D02*
X109013633Y-32389178D01*
X109013633Y-32389178D02*
X105613633Y-32389178D01*
%TO.C,SW7*%
X32845465Y-51439178D02*
X29445465Y-51439178D01*
X29445465Y-54439178D02*
X32845465Y-54439178D01*
X29445465Y-51439178D02*
X29445465Y-54439178D01*
X32845465Y-54439178D02*
X32845465Y-51439178D01*
%TO.C,SW17*%
X109013633Y-70489178D02*
X105613633Y-70489178D01*
X109013633Y-73489178D02*
X109013633Y-70489178D01*
X105613633Y-70489178D02*
X105613633Y-73489178D01*
X105613633Y-73489178D02*
X109013633Y-73489178D01*
%TO.C,SW22*%
X89963633Y-92539178D02*
X89963633Y-89539178D01*
X86563633Y-92539178D02*
X89963633Y-92539178D01*
X86563633Y-89539178D02*
X86563633Y-92539178D01*
X89963633Y-89539178D02*
X86563633Y-89539178D01*
%TO.C,SW19*%
X32813633Y-89539178D02*
X29413633Y-89539178D01*
X29413633Y-89539178D02*
X29413633Y-92539178D01*
X29413633Y-92539178D02*
X32813633Y-92539178D01*
X32813633Y-92539178D02*
X32813633Y-89539178D01*
%TO.C,SW15*%
X67513633Y-73489178D02*
X70913633Y-73489178D01*
X70913633Y-73489178D02*
X70913633Y-70489178D01*
X70913633Y-70489178D02*
X67513633Y-70489178D01*
X67513633Y-70489178D02*
X67513633Y-73489178D01*
%TO.C,SW2*%
X48463633Y-35389178D02*
X51863633Y-35389178D01*
X51863633Y-32389178D02*
X48463633Y-32389178D01*
X48463633Y-32389178D02*
X48463633Y-35389178D01*
X51863633Y-35389178D02*
X51863633Y-32389178D01*
%TO.C,SW4*%
X86563633Y-32389178D02*
X86563633Y-35389178D01*
X89963633Y-35389178D02*
X89963633Y-32389178D01*
X89963633Y-32389178D02*
X86563633Y-32389178D01*
X86563633Y-35389178D02*
X89963633Y-35389178D01*
%TO.C,SW30*%
X128063633Y-111589178D02*
X128063633Y-108589178D01*
X128063633Y-108589178D02*
X124663633Y-108589178D01*
X124663633Y-108589178D02*
X124663633Y-111589178D01*
X124663633Y-111589178D02*
X128063633Y-111589178D01*
%TO.C,SW14*%
X48463633Y-73489178D02*
X51863633Y-73489178D01*
X51863633Y-70489178D02*
X48463633Y-70489178D01*
X48463633Y-70489178D02*
X48463633Y-73489178D01*
X51863633Y-73489178D02*
X51863633Y-70489178D01*
%TO.C,SW8*%
X51863633Y-54439178D02*
X51863633Y-51439178D01*
X51863633Y-51439178D02*
X48463633Y-51439178D01*
X48463633Y-54439178D02*
X51863633Y-54439178D01*
X48463633Y-51439178D02*
X48463633Y-54439178D01*
%TO.C,SW24*%
X124663633Y-92539178D02*
X128063633Y-92539178D01*
X128063633Y-89539178D02*
X124663633Y-89539178D01*
X128063633Y-92539178D02*
X128063633Y-89539178D01*
X124663633Y-89539178D02*
X124663633Y-92539178D01*
%TO.C,SW3*%
X67513633Y-32389178D02*
X67513633Y-35389178D01*
X70913633Y-35389178D02*
X70913633Y-32389178D01*
X70913633Y-32389178D02*
X67513633Y-32389178D01*
X67513633Y-35389178D02*
X70913633Y-35389178D01*
%TO.C,SW27*%
X70913633Y-111589178D02*
X70913633Y-108589178D01*
X67513633Y-111589178D02*
X70913633Y-111589178D01*
X70913633Y-108589178D02*
X67513633Y-108589178D01*
X67513633Y-108589178D02*
X67513633Y-111589178D01*
%TO.C,SW18*%
X128063633Y-70489178D02*
X124663633Y-70489178D01*
X124663633Y-70489178D02*
X124663633Y-73489178D01*
X124663633Y-73489178D02*
X128063633Y-73489178D01*
X128063633Y-73489178D02*
X128063633Y-70489178D01*
%TO.C,SW28*%
X86563633Y-111589178D02*
X89963633Y-111589178D01*
X86563633Y-108589178D02*
X86563633Y-111589178D01*
X89963633Y-108589178D02*
X86563633Y-108589178D01*
X89963633Y-111589178D02*
X89963633Y-108589178D01*
%TO.C,SW11*%
X105613633Y-51439178D02*
X105613633Y-54439178D01*
X105613633Y-54439178D02*
X109013633Y-54439178D01*
X109013633Y-54439178D02*
X109013633Y-51439178D01*
X109013633Y-51439178D02*
X105613633Y-51439178D01*
%TO.C,SW23*%
X109013633Y-89539178D02*
X105613633Y-89539178D01*
X105613633Y-92539178D02*
X109013633Y-92539178D01*
X105613633Y-89539178D02*
X105613633Y-92539178D01*
X109013633Y-92539178D02*
X109013633Y-89539178D01*
%TO.C,SW10*%
X86563633Y-51439178D02*
X86563633Y-54439178D01*
X89963633Y-54439178D02*
X89963633Y-51439178D01*
X86563633Y-54439178D02*
X89963633Y-54439178D01*
X89963633Y-51439178D02*
X86563633Y-51439178D01*
%TO.C,SW29*%
X105613633Y-108589178D02*
X105613633Y-111589178D01*
X105613633Y-111589178D02*
X109013633Y-111589178D01*
X109013633Y-111589178D02*
X109013633Y-108589178D01*
X109013633Y-108589178D02*
X105613633Y-108589178D01*
%TO.C,SW20*%
X51863633Y-92539178D02*
X51863633Y-89539178D01*
X48463633Y-92539178D02*
X51863633Y-92539178D01*
X51863633Y-89539178D02*
X48463633Y-89539178D01*
X48463633Y-89539178D02*
X48463633Y-92539178D01*
%TO.C,SW25*%
X32813633Y-111589178D02*
X32813633Y-108589178D01*
X29413633Y-108589178D02*
X29413633Y-111589178D01*
X32813633Y-108589178D02*
X29413633Y-108589178D01*
X29413633Y-111589178D02*
X32813633Y-111589178D01*
%TD*%
M02*
