M48
; DRILL file {KiCad (6.0.4-0)} date 2022 October 03, Monday 20:52:25
; FORMAT={-:-/ absolute / metric / decimal}
; #@! TF.CreationDate,2022-10-03T20:52:25+03:00
; #@! TF.GenerationSoftware,Kicad,Pcbnew,(6.0.4-0)
; #@! TF.FileFunction,Plated,1,2,PTH
FMAT,2
METRIC
; #@! TA.AperFunction,Plated,PTH,ViaDrill
T1C0.300
; #@! TA.AperFunction,Plated,PTH,ComponentDrill
T2C0.600
; #@! TA.AperFunction,Plated,PTH,ComponentDrill
T3C0.800
; #@! TA.AperFunction,Plated,PTH,ComponentDrill
T4C1.000
; #@! TA.AperFunction,Plated,PTH,ComponentDrill
T5C1.092
; #@! TA.AperFunction,Plated,PTH,ComponentDrill
T6C2.200
%
G90
G05
T1
X24.78Y-29.91
X26.33Y-19.69
X42.46Y-59.022
X42.49Y-51.75
X42.52Y-29.8
X42.52Y-40.09
X42.52Y-70.71
X42.52Y-89.89
X42.55Y-77.86
X42.58Y-97.17
X62.5Y-59.76
X62.51Y-51.51
X62.52Y-97.14
X62.54Y-40.06
X62.56Y-31.88
X62.58Y-69.87
X62.58Y-89.65
X62.64Y-77.82
X80.58Y-32.86
X80.58Y-89.79
X80.63Y-40.14
X80.63Y-71.06
X80.65Y-77.92
X80.67Y-51.85
X80.67Y-59.08
X80.69Y-97.24
X100.18Y-33.17
X100.26Y-68.98
X100.27Y-40.0
X100.27Y-50.53
X100.27Y-80.24
X100.3Y-89.69
X100.32Y-58.68
X100.33Y-97.14
X104.03Y-21.439
X111.788Y-37.475
X113.436Y-54.901
X114.15Y-55.4
X114.158Y-92.967
X114.21Y-56.41
X114.431Y-73.881
X114.757Y-53.184
X114.994Y-74.607
X115.57Y-52.484
X116.399Y-67.731
X117.899Y-90.584
X117.91Y-97.932
X118.032Y-69.881
X118.054Y-77.351
X120.4Y-58.31
X130.73Y-50.75
X131.968Y-93.695
X132.839Y-94.561
X132.933Y-75.415
X134.398Y-94.122
X135.151Y-74.2
X136.75Y-55.48
X137.34Y-36.15
X139.15Y-33.78
T3
X139.15Y-39.46
X139.15Y-41.46
X139.15Y-43.46
X139.15Y-45.46
T4
X123.865Y-20.676
X123.865Y-35.176
X123.865Y-40.226
X123.865Y-54.726
X126.365Y-20.676
X126.365Y-40.226
X128.865Y-20.676
X128.865Y-35.176
X128.865Y-40.226
X128.865Y-54.726
T5
X118.704Y-17.238
X118.745Y-19.758
X118.745Y-22.298
X118.745Y-24.838
X118.745Y-27.378
X118.745Y-29.918
X118.745Y-32.458
X118.745Y-34.998
X118.745Y-37.538
X118.745Y-40.078
X118.745Y-42.618
X118.745Y-45.158
X118.745Y-47.698
X133.98Y-17.197
X133.985Y-19.758
X133.985Y-22.298
X133.985Y-24.838
X133.985Y-27.378
X133.985Y-29.918
X133.985Y-32.458
X133.985Y-34.998
X133.985Y-37.538
X133.985Y-40.078
X133.985Y-42.618
X133.985Y-45.158
X133.985Y-47.698
T6
X21.76Y-18.17
X21.76Y-113.51
X59.7Y-57.16
X97.8Y-76.16
X138.1Y-18.17
X138.1Y-113.51
T2
G00X134.89Y-50.4
M15
G01X134.29Y-50.4
M16
G05
G00X134.89Y-59.04
M15
G01X134.29Y-59.04
M16
G05
G00X138.69Y-50.4
M15
G01X138.09Y-50.4
M16
G05
G00X138.69Y-59.04
M15
G01X138.09Y-59.04
M16
G05
T0
M30
