M48
; DRILL file {KiCad (6.0.4-0)} date 2022 October 03, Monday 20:52:25
; FORMAT={-:-/ absolute / metric / decimal}
; #@! TF.CreationDate,2022-10-03T20:52:25+03:00
; #@! TF.GenerationSoftware,Kicad,Pcbnew,(6.0.4-0)
; #@! TF.FileFunction,NonPlated,1,2,NPTH
FMAT,2
METRIC
; #@! TA.AperFunction,NonPlated,NPTH,ComponentDrill
T1C0.850
; #@! TA.AperFunction,NonPlated,NPTH,ComponentDrill
T2C1.500
; #@! TA.AperFunction,NonPlated,NPTH,ComponentDrill
T3C1.750
; #@! TA.AperFunction,NonPlated,NPTH,ComponentDrill
T4C3.050
; #@! TA.AperFunction,NonPlated,NPTH,ComponentDrill
T5C4.000
%
G90
G05
T1
X111.06Y-16.71
X114.06Y-16.71
T3
X26.035Y-28.575
X26.035Y-66.675
X26.035Y-85.725
X26.035Y-104.775
X26.067Y-47.625
X36.195Y-28.575
X36.195Y-66.675
X36.195Y-85.725
X36.195Y-104.775
X36.227Y-47.625
X45.085Y-28.575
X45.085Y-47.625
X45.085Y-66.675
X45.085Y-85.725
X45.085Y-104.775
X55.245Y-28.575
X55.245Y-47.625
X55.245Y-66.675
X55.245Y-85.725
X55.245Y-104.775
X64.135Y-28.575
X64.135Y-47.625
X64.135Y-66.675
X64.135Y-85.725
X64.135Y-104.775
X74.295Y-28.575
X74.295Y-47.625
X74.295Y-66.675
X74.295Y-85.725
X74.295Y-104.775
X83.185Y-28.575
X83.185Y-47.625
X83.185Y-66.675
X83.185Y-85.725
X83.185Y-104.775
X93.345Y-28.575
X93.345Y-47.625
X93.345Y-66.675
X93.345Y-85.725
X93.345Y-104.775
X102.235Y-28.575
X102.235Y-47.625
X102.235Y-66.675
X102.235Y-85.725
X102.235Y-104.775
X112.395Y-28.575
X112.395Y-47.625
X112.395Y-66.675
X112.395Y-85.725
X112.395Y-104.775
X121.285Y-66.675
X121.285Y-85.725
X121.285Y-104.775
X131.445Y-66.675
X131.445Y-85.725
X131.445Y-104.775
T4
X27.305Y-26.035
X27.305Y-64.135
X27.305Y-83.185
X27.305Y-102.235
X27.337Y-45.085
X33.655Y-23.495
X33.655Y-61.595
X33.655Y-80.645
X33.655Y-99.695
X33.687Y-42.545
X46.355Y-26.035
X46.355Y-45.085
X46.355Y-64.135
X46.355Y-83.185
X46.355Y-102.235
X52.705Y-23.495
X52.705Y-42.545
X52.705Y-61.595
X52.705Y-80.645
X52.705Y-99.695
X65.405Y-26.035
X65.405Y-45.085
X65.405Y-64.135
X65.405Y-83.185
X65.405Y-102.235
X71.755Y-23.495
X71.755Y-42.545
X71.755Y-61.595
X71.755Y-80.645
X71.755Y-99.695
X84.455Y-26.035
X84.455Y-45.085
X84.455Y-64.135
X84.455Y-83.185
X84.455Y-102.235
X90.805Y-23.495
X90.805Y-42.545
X90.805Y-61.595
X90.805Y-80.645
X90.805Y-99.695
X103.505Y-26.035
X103.505Y-45.085
X103.505Y-64.135
X103.505Y-83.185
X103.505Y-102.235
X109.855Y-23.495
X109.855Y-42.545
X109.855Y-61.595
X109.855Y-80.645
X109.855Y-99.695
X122.555Y-64.135
X122.555Y-83.185
X122.555Y-102.235
X128.905Y-61.595
X128.905Y-80.645
X128.905Y-99.695
T5
X31.115Y-28.575
X31.115Y-66.675
X31.115Y-85.725
X31.115Y-104.775
X31.147Y-47.625
X50.165Y-28.575
X50.165Y-47.625
X50.165Y-66.675
X50.165Y-85.725
X50.165Y-104.775
X69.215Y-28.575
X69.215Y-47.625
X69.215Y-66.675
X69.215Y-85.725
X69.215Y-104.775
X88.265Y-28.575
X88.265Y-47.625
X88.265Y-66.675
X88.265Y-85.725
X88.265Y-104.775
X107.315Y-28.575
X107.315Y-47.625
X107.315Y-66.675
X107.315Y-85.725
X107.315Y-104.775
X126.365Y-66.675
X126.365Y-85.725
X126.365Y-104.775
T2
G00X120.765Y-27.526
M15
G01X120.765Y-28.826
M16
G05
G00X120.765Y-47.076
M15
G01X120.765Y-48.376
M16
G05
G00X131.965Y-27.526
M15
G01X131.965Y-28.826
M16
G05
G00X131.965Y-47.076
M15
G01X131.965Y-48.376
M16
G05
T0
M30
