%TF.GenerationSoftware,KiCad,Pcbnew,(6.0.4-0)*%
%TF.CreationDate,2022-10-04T18:38:15+03:00*%
%TF.ProjectId,Splitimsi,53706c69-7469-46d7-9369-2e6b69636164,rev?*%
%TF.SameCoordinates,Original*%
%TF.FileFunction,Legend,Top*%
%TF.FilePolarity,Positive*%
%FSLAX46Y46*%
G04 Gerber Fmt 4.6, Leading zero omitted, Abs format (unit mm)*
G04 Created by KiCad (PCBNEW (6.0.4-0)) date 2022-10-04 18:38:15*
%MOMM*%
%LPD*%
G01*
G04 APERTURE LIST*
%ADD10C,0.150000*%
%ADD11C,0.120000*%
%ADD12C,0.381000*%
%ADD13C,1.752600*%
%ADD14R,1.752600X1.752600*%
G04 APERTURE END LIST*
D10*
X120394911Y-17021339D02*
X120537769Y-17068958D01*
X120585388Y-17116577D01*
X120633007Y-17211815D01*
X120633007Y-17354672D01*
X120585388Y-17449910D01*
X120537769Y-17497529D01*
X120442531Y-17545148D01*
X120061578Y-17545148D01*
X120061578Y-16545148D01*
X120394911Y-16545148D01*
X120490150Y-16592768D01*
X120537769Y-16640387D01*
X120585388Y-16735625D01*
X120585388Y-16830863D01*
X120537769Y-16926101D01*
X120490150Y-16973720D01*
X120394911Y-17021339D01*
X120061578Y-17021339D01*
X121061578Y-17164196D02*
X121823483Y-17164196D01*
X131097438Y-17011680D02*
X131240296Y-17059299D01*
X131287915Y-17106918D01*
X131335534Y-17202156D01*
X131335534Y-17345013D01*
X131287915Y-17440251D01*
X131240296Y-17487870D01*
X131145058Y-17535489D01*
X130764105Y-17535489D01*
X130764105Y-16535489D01*
X131097438Y-16535489D01*
X131192677Y-16583109D01*
X131240296Y-16630728D01*
X131287915Y-16725966D01*
X131287915Y-16821204D01*
X131240296Y-16916442D01*
X131192677Y-16964061D01*
X131097438Y-17011680D01*
X130764105Y-17011680D01*
X131764105Y-17154537D02*
X132526010Y-17154537D01*
X132145058Y-17535489D02*
X132145058Y-16773585D01*
D11*
%TO.C,SW21*%
X62115000Y-92825000D02*
X76315000Y-92825000D01*
X76315000Y-78625000D02*
X62115000Y-78625000D01*
X62115000Y-78625000D02*
X62115000Y-92825000D01*
X76315000Y-92825000D02*
X76315000Y-78625000D01*
%TO.C,SW16*%
X95365000Y-59575000D02*
X81165000Y-59575000D01*
X81165000Y-73775000D02*
X95365000Y-73775000D01*
X81165000Y-59575000D02*
X81165000Y-73775000D01*
X95365000Y-73775000D02*
X95365000Y-59575000D01*
%TO.C,SW13*%
X38215000Y-73775000D02*
X38215000Y-59575000D01*
X24015000Y-73775000D02*
X38215000Y-73775000D01*
X24015000Y-59575000D02*
X24015000Y-73775000D01*
X38215000Y-59575000D02*
X24015000Y-59575000D01*
%TO.C,SW9*%
X62115000Y-40525000D02*
X62115000Y-54725000D01*
X76315000Y-54725000D02*
X76315000Y-40525000D01*
X62115000Y-54725000D02*
X76315000Y-54725000D01*
X76315000Y-40525000D02*
X62115000Y-40525000D01*
%TO.C,SW26*%
X57265000Y-111875000D02*
X57265000Y-97675000D01*
X43065000Y-97675000D02*
X43065000Y-111875000D01*
X57265000Y-97675000D02*
X43065000Y-97675000D01*
X43065000Y-111875000D02*
X57265000Y-111875000D01*
%TO.C,SW1*%
X38215000Y-35675000D02*
X38215000Y-21475000D01*
X38215000Y-21475000D02*
X24015000Y-21475000D01*
X24015000Y-21475000D02*
X24015000Y-35675000D01*
X24015000Y-35675000D02*
X38215000Y-35675000D01*
%TO.C,SW5*%
X114415000Y-35675000D02*
X114415000Y-21475000D01*
X100215000Y-21475000D02*
X100215000Y-35675000D01*
X100215000Y-35675000D02*
X114415000Y-35675000D01*
X114415000Y-21475000D02*
X100215000Y-21475000D01*
%TO.C,SW7*%
X38246832Y-40525000D02*
X24046832Y-40525000D01*
X38246832Y-54725000D02*
X38246832Y-40525000D01*
X24046832Y-40525000D02*
X24046832Y-54725000D01*
X24046832Y-54725000D02*
X38246832Y-54725000D01*
%TO.C,SW17*%
X114415000Y-73775000D02*
X114415000Y-59575000D01*
X100215000Y-59575000D02*
X100215000Y-73775000D01*
X114415000Y-59575000D02*
X100215000Y-59575000D01*
X100215000Y-73775000D02*
X114415000Y-73775000D01*
%TO.C,SW22*%
X81165000Y-78625000D02*
X81165000Y-92825000D01*
X95365000Y-92825000D02*
X95365000Y-78625000D01*
X95365000Y-78625000D02*
X81165000Y-78625000D01*
X81165000Y-92825000D02*
X95365000Y-92825000D01*
%TO.C,SW19*%
X24015000Y-92825000D02*
X38215000Y-92825000D01*
X38215000Y-92825000D02*
X38215000Y-78625000D01*
X38215000Y-78625000D02*
X24015000Y-78625000D01*
X24015000Y-78625000D02*
X24015000Y-92825000D01*
%TO.C,Dogo1*%
X138090000Y-46520000D02*
X140210000Y-46520000D01*
X139150000Y-38400000D02*
X140210000Y-38400000D01*
X140210000Y-40460000D02*
X140210000Y-46520000D01*
X138090000Y-40460000D02*
X140210000Y-40460000D01*
X138090000Y-40460000D02*
X138090000Y-46520000D01*
X140210000Y-38400000D02*
X140210000Y-39460000D01*
%TO.C,SW15*%
X62115000Y-73775000D02*
X76315000Y-73775000D01*
X76315000Y-59575000D02*
X62115000Y-59575000D01*
X76315000Y-73775000D02*
X76315000Y-59575000D01*
X62115000Y-59575000D02*
X62115000Y-73775000D01*
%TO.C,SW6*%
X126365000Y-27675857D02*
X126365000Y-28675857D01*
X126865000Y-28175857D02*
X125865000Y-28175857D01*
%TO.C,SW2*%
X43065000Y-35675000D02*
X57265000Y-35675000D01*
X57265000Y-21475000D02*
X43065000Y-21475000D01*
X57265000Y-35675000D02*
X57265000Y-21475000D01*
X43065000Y-21475000D02*
X43065000Y-35675000D01*
%TO.C,SW4*%
X81165000Y-35675000D02*
X95365000Y-35675000D01*
X95365000Y-35675000D02*
X95365000Y-21475000D01*
X81165000Y-21475000D02*
X81165000Y-35675000D01*
X95365000Y-21475000D02*
X81165000Y-21475000D01*
%TO.C,SW30*%
X133465000Y-111875000D02*
X133465000Y-97675000D01*
X119265000Y-97675000D02*
X119265000Y-111875000D01*
X133465000Y-97675000D02*
X119265000Y-97675000D01*
X119265000Y-111875000D02*
X133465000Y-111875000D01*
%TO.C,SW12*%
X126365000Y-47225857D02*
X126365000Y-48225857D01*
X126865000Y-47725857D02*
X125865000Y-47725857D01*
%TO.C,SW14*%
X57265000Y-73775000D02*
X57265000Y-59575000D01*
X43065000Y-59575000D02*
X43065000Y-73775000D01*
X57265000Y-59575000D02*
X43065000Y-59575000D01*
X43065000Y-73775000D02*
X57265000Y-73775000D01*
%TO.C,SW8*%
X43065000Y-54725000D02*
X57265000Y-54725000D01*
X57265000Y-40525000D02*
X43065000Y-40525000D01*
X43065000Y-40525000D02*
X43065000Y-54725000D01*
X57265000Y-54725000D02*
X57265000Y-40525000D01*
%TO.C,SW24*%
X133465000Y-92825000D02*
X133465000Y-78625000D01*
X133465000Y-78625000D02*
X119265000Y-78625000D01*
X119265000Y-78625000D02*
X119265000Y-92825000D01*
X119265000Y-92825000D02*
X133465000Y-92825000D01*
%TO.C,SW3*%
X76315000Y-21475000D02*
X62115000Y-21475000D01*
X62115000Y-35675000D02*
X76315000Y-35675000D01*
X76315000Y-35675000D02*
X76315000Y-21475000D01*
X62115000Y-21475000D02*
X62115000Y-35675000D01*
D12*
%TO.C,U1*%
X120014835Y-18487731D02*
X117474835Y-18487731D01*
D11*
%TO.C,SW27*%
X76315000Y-97675000D02*
X62115000Y-97675000D01*
X62115000Y-111875000D02*
X76315000Y-111875000D01*
X76315000Y-111875000D02*
X76315000Y-97675000D01*
X62115000Y-97675000D02*
X62115000Y-111875000D01*
%TO.C,SW18*%
X119265000Y-73775000D02*
X133465000Y-73775000D01*
X133465000Y-73775000D02*
X133465000Y-59575000D01*
X133465000Y-59575000D02*
X119265000Y-59575000D01*
X119265000Y-59575000D02*
X119265000Y-73775000D01*
%TO.C,SW28*%
X81165000Y-97675000D02*
X81165000Y-111875000D01*
X81165000Y-111875000D02*
X95365000Y-111875000D01*
X95365000Y-111875000D02*
X95365000Y-97675000D01*
X95365000Y-97675000D02*
X81165000Y-97675000D01*
%TO.C,SW11*%
X114415000Y-54725000D02*
X114415000Y-40525000D01*
X114415000Y-40525000D02*
X100215000Y-40525000D01*
X100215000Y-40525000D02*
X100215000Y-54725000D01*
X100215000Y-54725000D02*
X114415000Y-54725000D01*
%TO.C,SW23*%
X114415000Y-78625000D02*
X100215000Y-78625000D01*
X100215000Y-92825000D02*
X114415000Y-92825000D01*
X114415000Y-92825000D02*
X114415000Y-78625000D01*
X100215000Y-78625000D02*
X100215000Y-92825000D01*
%TO.C,SW10*%
X95365000Y-54725000D02*
X95365000Y-40525000D01*
X81165000Y-54725000D02*
X95365000Y-54725000D01*
X95365000Y-40525000D02*
X81165000Y-40525000D01*
X81165000Y-40525000D02*
X81165000Y-54725000D01*
%TO.C,SW29*%
X114415000Y-97675000D02*
X100215000Y-97675000D01*
X100215000Y-111875000D02*
X114415000Y-111875000D01*
X100215000Y-97675000D02*
X100215000Y-111875000D01*
X114415000Y-111875000D02*
X114415000Y-97675000D01*
%TO.C,SW20*%
X43065000Y-92825000D02*
X57265000Y-92825000D01*
X43065000Y-78625000D02*
X43065000Y-92825000D01*
X57265000Y-92825000D02*
X57265000Y-78625000D01*
X57265000Y-78625000D02*
X43065000Y-78625000D01*
%TO.C,SW25*%
X38215000Y-97675000D02*
X24015000Y-97675000D01*
X38215000Y-111875000D02*
X38215000Y-97675000D01*
X24015000Y-97675000D02*
X24015000Y-111875000D01*
X24015000Y-111875000D02*
X38215000Y-111875000D01*
%TD*%
D13*
%TO.C,Pin1*%
X118703715Y-17238202D03*
%TD*%
%TO.C,Pin2*%
X133979677Y-17196748D03*
%TD*%
D14*
%TO.C,U1*%
X118744835Y-19757731D03*
D13*
X118744835Y-22297731D03*
X118744835Y-24837731D03*
X118744835Y-27377731D03*
X118744835Y-29917731D03*
X118744835Y-32457731D03*
X118744835Y-34997731D03*
X118744835Y-37537731D03*
X118744835Y-40077731D03*
X118744835Y-42617731D03*
X118744835Y-45157731D03*
X118744835Y-47697731D03*
X133984835Y-47697731D03*
X133984835Y-45157731D03*
X133984835Y-42617731D03*
X133984835Y-40077731D03*
X133984835Y-37537731D03*
X133984835Y-34997731D03*
X133984835Y-32457731D03*
X133984835Y-29917731D03*
X133984835Y-27377731D03*
X133984835Y-24837731D03*
X133984835Y-22297731D03*
X133984835Y-19757731D03*
%TD*%
M02*
