%TF.GenerationSoftware,KiCad,Pcbnew,(6.0.4-0)*%
%TF.CreationDate,2022-10-04T18:38:15+03:00*%
%TF.ProjectId,Splitimsi,53706c69-7469-46d7-9369-2e6b69636164,rev?*%
%TF.SameCoordinates,Original*%
%TF.FileFunction,Soldermask,Bot*%
%TF.FilePolarity,Negative*%
%FSLAX46Y46*%
G04 Gerber Fmt 4.6, Leading zero omitted, Abs format (unit mm)*
G04 Created by KiCad (PCBNEW (6.0.4-0)) date 2022-10-04 18:38:15*
%MOMM*%
%LPD*%
G01*
G04 APERTURE LIST*
G04 Aperture macros list*
%AMRoundRect*
0 Rectangle with rounded corners*
0 $1 Rounding radius*
0 $2 $3 $4 $5 $6 $7 $8 $9 X,Y pos of 4 corners*
0 Add a 4 corners polygon primitive as box body*
4,1,4,$2,$3,$4,$5,$6,$7,$8,$9,$2,$3,0*
0 Add four circle primitives for the rounded corners*
1,1,$1+$1,$2,$3*
1,1,$1+$1,$4,$5*
1,1,$1+$1,$6,$7*
1,1,$1+$1,$8,$9*
0 Add four rect primitives between the rounded corners*
20,1,$1+$1,$2,$3,$4,$5,0*
20,1,$1+$1,$4,$5,$6,$7,0*
20,1,$1+$1,$6,$7,$8,$9,0*
20,1,$1+$1,$8,$9,$2,$3,0*%
G04 Aperture macros list end*
%ADD10C,3.050000*%
%ADD11C,4.000000*%
%ADD12C,1.750000*%
%ADD13RoundRect,0.250000X-1.025000X-1.000000X1.025000X-1.000000X1.025000X1.000000X-1.025000X1.000000X0*%
%ADD14R,1.700000X0.820000*%
%ADD15RoundRect,0.205000X-0.645000X-0.205000X0.645000X-0.205000X0.645000X0.205000X-0.645000X0.205000X0*%
%ADD16R,1.200000X1.400000*%
%ADD17C,1.752600*%
%ADD18C,3.500000*%
%ADD19R,1.350000X1.350000*%
%ADD20O,1.350000X1.350000*%
%ADD21O,1.800000X3.000000*%
%ADD22R,2.000000X2.000000*%
%ADD23C,2.000000*%
%ADD24C,1.700000*%
%ADD25R,1.752600X1.752600*%
%ADD26RoundRect,0.250000X-0.625000X0.400000X-0.625000X-0.400000X0.625000X-0.400000X0.625000X0.400000X0*%
%ADD27C,0.850000*%
%ADD28R,1.000000X0.700000*%
%ADD29R,0.700000X1.200000*%
%ADD30R,1.200000X0.700000*%
%ADD31R,1.200000X0.760000*%
%ADD32R,1.200000X0.800000*%
%ADD33O,2.200000X1.100000*%
%ADD34R,1.700000X0.800000*%
%ADD35RoundRect,0.250000X0.625000X-0.400000X0.625000X0.400000X-0.625000X0.400000X-0.625000X-0.400000X0*%
%ADD36R,1.400000X1.200000*%
G04 APERTURE END LIST*
D10*
%TO.C,SW21*%
X65405000Y-83185000D03*
D11*
X69215000Y-85725000D03*
D10*
X71755000Y-80645000D03*
D12*
X74295000Y-85725000D03*
X64135000Y-85725000D03*
D13*
X62130000Y-83185000D03*
X75057000Y-80645000D03*
D14*
X71763633Y-91789178D03*
X71763633Y-90289178D03*
D15*
X66663633Y-90289178D03*
D14*
X66663633Y-91789178D03*
D16*
X68075388Y-77320359D03*
X71475388Y-77320359D03*
%TD*%
D12*
%TO.C,SW16*%
X83185000Y-66675000D03*
X93345000Y-66675000D03*
D10*
X84455000Y-64135000D03*
X90805000Y-61595000D03*
D11*
X88265000Y-66675000D03*
D13*
X81180000Y-64135000D03*
X94107000Y-61595000D03*
D14*
X90813633Y-72739178D03*
X90813633Y-71239178D03*
D15*
X85713633Y-71239178D03*
D14*
X85713633Y-72739178D03*
D16*
X87125388Y-58270359D03*
X90525388Y-58270359D03*
%TD*%
D17*
%TO.C,Pin1*%
X118703715Y-17238202D03*
%TD*%
%TO.C,Pin2*%
X133979677Y-17196748D03*
%TD*%
D10*
%TO.C,SW13*%
X33655000Y-61595000D03*
D12*
X36195000Y-66675000D03*
D11*
X31115000Y-66675000D03*
D10*
X27305000Y-64135000D03*
D12*
X26035000Y-66675000D03*
D13*
X24030000Y-64135000D03*
X36957000Y-61595000D03*
D14*
X33663633Y-72739178D03*
X33663633Y-71239178D03*
D15*
X28563633Y-71239178D03*
D14*
X28563633Y-72739178D03*
D16*
X29975388Y-58270359D03*
X33375388Y-58270359D03*
%TD*%
D12*
%TO.C,SW9*%
X74295000Y-47625000D03*
D10*
X65405000Y-45085000D03*
X71755000Y-42545000D03*
D11*
X69215000Y-47625000D03*
D12*
X64135000Y-47625000D03*
D13*
X62130000Y-45085000D03*
X75057000Y-42545000D03*
D14*
X71763633Y-53689178D03*
X71763633Y-52189178D03*
D15*
X66663633Y-52189178D03*
D14*
X66663633Y-53689178D03*
D16*
X68075388Y-39220359D03*
X71475388Y-39220359D03*
%TD*%
D10*
%TO.C,SW26*%
X46355000Y-102235000D03*
D11*
X50165000Y-104775000D03*
D12*
X55245000Y-104775000D03*
X45085000Y-104775000D03*
D10*
X52705000Y-99695000D03*
D13*
X43080000Y-102235000D03*
X56007000Y-99695000D03*
D14*
X52713633Y-110839178D03*
X52713633Y-109339178D03*
D15*
X47613633Y-109339178D03*
D14*
X47613633Y-110839178D03*
D16*
X49025388Y-96370359D03*
X52425388Y-96370359D03*
%TD*%
D10*
%TO.C,SW1*%
X27305000Y-26035000D03*
D11*
X31115000Y-28575000D03*
D12*
X36195000Y-28575000D03*
X26035000Y-28575000D03*
D10*
X33655000Y-23495000D03*
D13*
X24030000Y-26035000D03*
X36957000Y-23495000D03*
D14*
X33663633Y-34639178D03*
X33663633Y-33139178D03*
D15*
X28563633Y-33139178D03*
D14*
X28563633Y-34639178D03*
D16*
X29975388Y-20170359D03*
X33375388Y-20170359D03*
%TD*%
%TO.C,SW5*%
X106049391Y-20035080D03*
X102649391Y-20035080D03*
D14*
X104763633Y-34639178D03*
D15*
X104763633Y-33139178D03*
D14*
X109863633Y-33139178D03*
X109863633Y-34639178D03*
D13*
X113157000Y-23495000D03*
X100230000Y-26035000D03*
D12*
X112395000Y-28575000D03*
X102235000Y-28575000D03*
D11*
X107315000Y-28575000D03*
D10*
X103505000Y-26035000D03*
X109855000Y-23495000D03*
%TD*%
D18*
%TO.C,H5*%
X138100000Y-113510000D03*
%TD*%
D11*
%TO.C,SW7*%
X31146832Y-47625000D03*
D10*
X33686832Y-42545000D03*
D12*
X26066832Y-47625000D03*
X36226832Y-47625000D03*
D10*
X27336832Y-45085000D03*
D13*
X24061832Y-45085000D03*
X36988832Y-42545000D03*
D14*
X33695465Y-53689178D03*
X33695465Y-52189178D03*
D15*
X28595465Y-52189178D03*
D14*
X28595465Y-53689178D03*
D16*
X30007220Y-39220359D03*
X33407220Y-39220359D03*
%TD*%
D12*
%TO.C,SW17*%
X112395000Y-66675000D03*
D10*
X109855000Y-61595000D03*
D12*
X102235000Y-66675000D03*
D11*
X107315000Y-66675000D03*
D10*
X103505000Y-64135000D03*
D13*
X100230000Y-64135000D03*
X113157000Y-61595000D03*
D14*
X109863633Y-72739178D03*
X109863633Y-71239178D03*
D15*
X104763633Y-71239178D03*
D14*
X104763633Y-72739178D03*
D16*
X106175388Y-58270359D03*
X109575388Y-58270359D03*
%TD*%
D10*
%TO.C,SW22*%
X84455000Y-83185000D03*
D12*
X93345000Y-85725000D03*
D10*
X90805000Y-80645000D03*
D11*
X88265000Y-85725000D03*
D12*
X83185000Y-85725000D03*
D13*
X81180000Y-83185000D03*
X94107000Y-80645000D03*
D14*
X90813633Y-91789178D03*
X90813633Y-90289178D03*
D15*
X85713633Y-90289178D03*
D14*
X85713633Y-91789178D03*
D16*
X87125388Y-77320359D03*
X90525388Y-77320359D03*
%TD*%
D11*
%TO.C,SW19*%
X31115000Y-85725000D03*
D10*
X33655000Y-80645000D03*
X27305000Y-83185000D03*
D12*
X26035000Y-85725000D03*
X36195000Y-85725000D03*
D13*
X24030000Y-83185000D03*
X36957000Y-80645000D03*
D14*
X33663633Y-91789178D03*
X33663633Y-90289178D03*
D15*
X28563633Y-90289178D03*
D14*
X28563633Y-91789178D03*
D16*
X29975388Y-77320359D03*
X33375388Y-77320359D03*
%TD*%
D19*
%TO.C,Dogo1*%
X139150000Y-39460000D03*
D20*
X139150000Y-41460000D03*
X139150000Y-43460000D03*
X139150000Y-45460000D03*
%TD*%
D12*
%TO.C,SW15*%
X74295000Y-66675000D03*
D10*
X71755000Y-61595000D03*
D12*
X64135000Y-66675000D03*
D11*
X69215000Y-66675000D03*
D10*
X65405000Y-64135000D03*
D13*
X62130000Y-64135000D03*
X75057000Y-61595000D03*
D14*
X71763633Y-72739178D03*
X71763633Y-71239178D03*
D15*
X66663633Y-71239178D03*
D14*
X66663633Y-72739178D03*
D16*
X68075388Y-58270359D03*
X71475388Y-58270359D03*
%TD*%
D21*
%TO.C,SW6*%
X131960574Y-28170687D03*
X120765000Y-28175857D03*
D22*
X128865000Y-20675857D03*
D23*
X123865000Y-20675857D03*
X126365000Y-20675857D03*
D24*
X123865000Y-35175857D03*
X128865000Y-35175857D03*
%TD*%
D10*
%TO.C,SW2*%
X52705000Y-23495000D03*
D12*
X45085000Y-28575000D03*
D10*
X46355000Y-26035000D03*
D12*
X55245000Y-28575000D03*
D11*
X50165000Y-28575000D03*
D13*
X43080000Y-26035000D03*
X56007000Y-23495000D03*
D14*
X52713633Y-34639178D03*
X52713633Y-33139178D03*
D15*
X47613633Y-33139178D03*
D14*
X47613633Y-34639178D03*
D16*
X49025388Y-20170359D03*
X52425388Y-20170359D03*
%TD*%
D12*
%TO.C,SW4*%
X83185000Y-28575000D03*
D10*
X90805000Y-23495000D03*
X84455000Y-26035000D03*
D11*
X88265000Y-28575000D03*
D12*
X93345000Y-28575000D03*
D13*
X81180000Y-26035000D03*
X94107000Y-23495000D03*
D14*
X90813633Y-34639178D03*
X90813633Y-33139178D03*
D15*
X85713633Y-33139178D03*
D14*
X85713633Y-34639178D03*
D16*
X87125388Y-20170359D03*
X90525388Y-20170359D03*
%TD*%
D18*
%TO.C,H3*%
X138100000Y-18170000D03*
%TD*%
D12*
%TO.C,SW30*%
X131445000Y-104775000D03*
D10*
X122555000Y-102235000D03*
D11*
X126365000Y-104775000D03*
D12*
X121285000Y-104775000D03*
D10*
X128905000Y-99695000D03*
D13*
X119280000Y-102235000D03*
X132207000Y-99695000D03*
D14*
X128913633Y-110839178D03*
X128913633Y-109339178D03*
D15*
X123813633Y-109339178D03*
D14*
X123813633Y-110839178D03*
D16*
X125225388Y-96370359D03*
X128625388Y-96370359D03*
%TD*%
D18*
%TO.C,H6*%
X97800000Y-76160000D03*
%TD*%
%TO.C,H1*%
X21760000Y-18170000D03*
%TD*%
D21*
%TO.C,SW12*%
X131960574Y-47720687D03*
X120765000Y-47725857D03*
D22*
X128865000Y-40225857D03*
D23*
X123865000Y-40225857D03*
X126365000Y-40225857D03*
D24*
X123865000Y-54725857D03*
X128865000Y-54725857D03*
%TD*%
D10*
%TO.C,SW14*%
X52705000Y-61595000D03*
D11*
X50165000Y-66675000D03*
D10*
X46355000Y-64135000D03*
D12*
X55245000Y-66675000D03*
X45085000Y-66675000D03*
D13*
X43080000Y-64135000D03*
X56007000Y-61595000D03*
D14*
X52713633Y-72739178D03*
X52713633Y-71239178D03*
D15*
X47613633Y-71239178D03*
D14*
X47613633Y-72739178D03*
D16*
X49025388Y-58270359D03*
X52425388Y-58270359D03*
%TD*%
D18*
%TO.C,H4*%
X59700000Y-57160000D03*
%TD*%
D10*
%TO.C,SW8*%
X52705000Y-42545000D03*
D12*
X55245000Y-47625000D03*
D11*
X50165000Y-47625000D03*
D10*
X46355000Y-45085000D03*
D12*
X45085000Y-47625000D03*
D13*
X43080000Y-45085000D03*
X56007000Y-42545000D03*
D14*
X52713633Y-53689178D03*
X52713633Y-52189178D03*
D15*
X47613633Y-52189178D03*
D14*
X47613633Y-53689178D03*
D16*
X49025388Y-39220359D03*
X52425388Y-39220359D03*
%TD*%
D12*
%TO.C,SW24*%
X131445000Y-85725000D03*
D11*
X126365000Y-85725000D03*
D10*
X122555000Y-83185000D03*
X128905000Y-80645000D03*
D12*
X121285000Y-85725000D03*
D13*
X119280000Y-83185000D03*
X132207000Y-80645000D03*
D14*
X128913633Y-91789178D03*
X128913633Y-90289178D03*
D15*
X123813633Y-90289178D03*
D14*
X123813633Y-91789178D03*
D16*
X125225388Y-77320359D03*
X128625388Y-77320359D03*
%TD*%
D10*
%TO.C,SW3*%
X65405000Y-26035000D03*
D12*
X64135000Y-28575000D03*
X74295000Y-28575000D03*
D11*
X69215000Y-28575000D03*
D10*
X71755000Y-23495000D03*
D13*
X62130000Y-26035000D03*
X75057000Y-23495000D03*
D14*
X71763633Y-34639178D03*
X71763633Y-33139178D03*
D15*
X66663633Y-33139178D03*
D14*
X66663633Y-34639178D03*
D16*
X68075388Y-20170359D03*
X71475388Y-20170359D03*
%TD*%
D25*
%TO.C,U1*%
X118744835Y-19757731D03*
D17*
X118744835Y-22297731D03*
X118744835Y-24837731D03*
X118744835Y-27377731D03*
X118744835Y-29917731D03*
X118744835Y-32457731D03*
X118744835Y-34997731D03*
X118744835Y-37537731D03*
X118744835Y-40077731D03*
X118744835Y-42617731D03*
X118744835Y-45157731D03*
X118744835Y-47697731D03*
X133984835Y-47697731D03*
X133984835Y-45157731D03*
X133984835Y-42617731D03*
X133984835Y-40077731D03*
X133984835Y-37537731D03*
X133984835Y-34997731D03*
X133984835Y-32457731D03*
X133984835Y-29917731D03*
X133984835Y-27377731D03*
X133984835Y-24837731D03*
X133984835Y-22297731D03*
X133984835Y-19757731D03*
%TD*%
D11*
%TO.C,SW27*%
X69215000Y-104775000D03*
D10*
X71755000Y-99695000D03*
D12*
X64135000Y-104775000D03*
X74295000Y-104775000D03*
D10*
X65405000Y-102235000D03*
D13*
X62130000Y-102235000D03*
X75057000Y-99695000D03*
D14*
X71763633Y-110839178D03*
X71763633Y-109339178D03*
D15*
X66663633Y-109339178D03*
D14*
X66663633Y-110839178D03*
D16*
X68075388Y-96370359D03*
X71475388Y-96370359D03*
%TD*%
D11*
%TO.C,SW18*%
X126365000Y-66675000D03*
D10*
X122555000Y-64135000D03*
X128905000Y-61595000D03*
D12*
X121285000Y-66675000D03*
X131445000Y-66675000D03*
D13*
X119280000Y-64135000D03*
X132207000Y-61595000D03*
D14*
X128913633Y-72739178D03*
X128913633Y-71239178D03*
D15*
X123813633Y-71239178D03*
D14*
X123813633Y-72739178D03*
D16*
X125225388Y-58270359D03*
X128625388Y-58270359D03*
%TD*%
D10*
%TO.C,SW28*%
X84455000Y-102235000D03*
X90805000Y-99695000D03*
D12*
X83185000Y-104775000D03*
X93345000Y-104775000D03*
D11*
X88265000Y-104775000D03*
D13*
X81180000Y-102235000D03*
X94107000Y-99695000D03*
D14*
X90813633Y-110839178D03*
X90813633Y-109339178D03*
D15*
X85713633Y-109339178D03*
D14*
X85713633Y-110839178D03*
D16*
X87125388Y-96370359D03*
X90525388Y-96370359D03*
%TD*%
D12*
%TO.C,SW11*%
X102235000Y-47625000D03*
D11*
X107315000Y-47625000D03*
D10*
X103505000Y-45085000D03*
X109855000Y-42545000D03*
D12*
X112395000Y-47625000D03*
D13*
X100230000Y-45085000D03*
X113157000Y-42545000D03*
D14*
X109863633Y-53689178D03*
X109863633Y-52189178D03*
D15*
X104763633Y-52189178D03*
D14*
X104763633Y-53689178D03*
D16*
X106175388Y-39220359D03*
X109575388Y-39220359D03*
%TD*%
D10*
%TO.C,SW23*%
X109855000Y-80645000D03*
D12*
X112395000Y-85725000D03*
D11*
X107315000Y-85725000D03*
D10*
X103505000Y-83185000D03*
D12*
X102235000Y-85725000D03*
D13*
X100230000Y-83185000D03*
X113157000Y-80645000D03*
D14*
X109863633Y-91789178D03*
X109863633Y-90289178D03*
D15*
X104763633Y-90289178D03*
D14*
X104763633Y-91789178D03*
D16*
X106175388Y-77320359D03*
X109575388Y-77320359D03*
%TD*%
D11*
%TO.C,SW10*%
X88265000Y-47625000D03*
D10*
X90805000Y-42545000D03*
X84455000Y-45085000D03*
D12*
X93345000Y-47625000D03*
X83185000Y-47625000D03*
D13*
X81180000Y-45085000D03*
X94107000Y-42545000D03*
D14*
X90813633Y-53689178D03*
X90813633Y-52189178D03*
D15*
X85713633Y-52189178D03*
D14*
X85713633Y-53689178D03*
D16*
X87125388Y-39220359D03*
X90525388Y-39220359D03*
%TD*%
D10*
%TO.C,SW29*%
X109855000Y-99695000D03*
D12*
X102235000Y-104775000D03*
D11*
X107315000Y-104775000D03*
D10*
X103505000Y-102235000D03*
D12*
X112395000Y-104775000D03*
D13*
X100230000Y-102235000D03*
X113157000Y-99695000D03*
D14*
X109863633Y-110839178D03*
X109863633Y-109339178D03*
D15*
X104763633Y-109339178D03*
D14*
X104763633Y-110839178D03*
D16*
X106175388Y-96370359D03*
X109575388Y-96370359D03*
%TD*%
D18*
%TO.C,H2*%
X21760000Y-113510000D03*
%TD*%
D10*
%TO.C,SW20*%
X52705000Y-80645000D03*
X46355000Y-83185000D03*
D12*
X45085000Y-85725000D03*
X55245000Y-85725000D03*
D11*
X50165000Y-85725000D03*
D13*
X43080000Y-83185000D03*
X56007000Y-80645000D03*
D14*
X52713633Y-91789178D03*
X52713633Y-90289178D03*
D15*
X47613633Y-90289178D03*
D14*
X47613633Y-91789178D03*
D16*
X49025388Y-77320359D03*
X52425388Y-77320359D03*
%TD*%
D11*
%TO.C,SW25*%
X31115000Y-104775000D03*
D12*
X26035000Y-104775000D03*
D10*
X33655000Y-99695000D03*
D12*
X36195000Y-104775000D03*
D10*
X27305000Y-102235000D03*
D13*
X24030000Y-102235000D03*
X36957000Y-99695000D03*
D14*
X33663633Y-110839178D03*
X33663633Y-109339178D03*
D15*
X28563633Y-109339178D03*
D14*
X28563633Y-110839178D03*
D16*
X29975388Y-96370359D03*
X33375388Y-96370359D03*
%TD*%
D26*
%TO.C,R1*%
X24690000Y-31480000D03*
X24690000Y-34580000D03*
%TD*%
D27*
%TO.C,BatSW1*%
X111060000Y-16710000D03*
X114060000Y-16710000D03*
D28*
X109110000Y-15660000D03*
X109110000Y-17760000D03*
X116010000Y-15660000D03*
X116010000Y-17760000D03*
D29*
X110310000Y-18560000D03*
X113310000Y-18560000D03*
X114810000Y-18560000D03*
%TD*%
D30*
%TO.C,J1*%
X134510000Y-54220000D03*
D31*
X134510000Y-56240000D03*
D32*
X134510000Y-57470000D03*
D30*
X134510000Y-55220000D03*
D31*
X134510000Y-53200000D03*
D32*
X134510000Y-51970000D03*
D33*
X138390000Y-50400000D03*
X138390000Y-59040000D03*
X134590000Y-50400000D03*
X134590000Y-59040000D03*
%TD*%
D34*
%TO.C,rst1*%
X137475395Y-27237625D03*
X137475395Y-23837625D03*
%TD*%
D35*
%TO.C,R2*%
X136650000Y-35410000D03*
X136650000Y-32310000D03*
%TD*%
D36*
%TO.C,D1*%
X126363663Y-33369915D03*
X126363663Y-29969915D03*
%TD*%
D16*
%TO.C,D2*%
X127906250Y-42862500D03*
X124506250Y-42862500D03*
%TD*%
D35*
%TO.C,R3*%
X139200000Y-35410000D03*
X139200000Y-32310000D03*
%TD*%
M02*
