%TF.GenerationSoftware,KiCad,Pcbnew,(6.0.4-0)*%
%TF.CreationDate,2022-10-04T18:38:15+03:00*%
%TF.ProjectId,Splitimsi,53706c69-7469-46d7-9369-2e6b69636164,rev?*%
%TF.SameCoordinates,Original*%
%TF.FileFunction,Paste,Bot*%
%TF.FilePolarity,Positive*%
%FSLAX46Y46*%
G04 Gerber Fmt 4.6, Leading zero omitted, Abs format (unit mm)*
G04 Created by KiCad (PCBNEW (6.0.4-0)) date 2022-10-04 18:38:15*
%MOMM*%
%LPD*%
G01*
G04 APERTURE LIST*
G04 Aperture macros list*
%AMRoundRect*
0 Rectangle with rounded corners*
0 $1 Rounding radius*
0 $2 $3 $4 $5 $6 $7 $8 $9 X,Y pos of 4 corners*
0 Add a 4 corners polygon primitive as box body*
4,1,4,$2,$3,$4,$5,$6,$7,$8,$9,$2,$3,0*
0 Add four circle primitives for the rounded corners*
1,1,$1+$1,$2,$3*
1,1,$1+$1,$4,$5*
1,1,$1+$1,$6,$7*
1,1,$1+$1,$8,$9*
0 Add four rect primitives between the rounded corners*
20,1,$1+$1,$2,$3,$4,$5,0*
20,1,$1+$1,$4,$5,$6,$7,0*
20,1,$1+$1,$6,$7,$8,$9,0*
20,1,$1+$1,$8,$9,$2,$3,0*%
G04 Aperture macros list end*
%ADD10RoundRect,0.250000X-1.025000X-1.000000X1.025000X-1.000000X1.025000X1.000000X-1.025000X1.000000X0*%
%ADD11R,1.700000X0.820000*%
%ADD12RoundRect,0.205000X-0.645000X-0.205000X0.645000X-0.205000X0.645000X0.205000X-0.645000X0.205000X0*%
%ADD13R,1.200000X1.400000*%
%ADD14RoundRect,0.250000X-0.625000X0.400000X-0.625000X-0.400000X0.625000X-0.400000X0.625000X0.400000X0*%
%ADD15R,1.000000X0.700000*%
%ADD16R,0.700000X1.200000*%
%ADD17R,1.200000X0.700000*%
%ADD18R,1.200000X0.760000*%
%ADD19R,1.200000X0.800000*%
%ADD20R,1.700000X0.800000*%
%ADD21RoundRect,0.250000X0.625000X-0.400000X0.625000X0.400000X-0.625000X0.400000X-0.625000X-0.400000X0*%
%ADD22R,1.400000X1.200000*%
G04 APERTURE END LIST*
D10*
%TO.C,SW21*%
X62130000Y-83185000D03*
X75057000Y-80645000D03*
D11*
X71763633Y-91789178D03*
X71763633Y-90289178D03*
D12*
X66663633Y-90289178D03*
D11*
X66663633Y-91789178D03*
D13*
X68075388Y-77320359D03*
X71475388Y-77320359D03*
%TD*%
D10*
%TO.C,SW16*%
X81180000Y-64135000D03*
X94107000Y-61595000D03*
D11*
X90813633Y-72739178D03*
X90813633Y-71239178D03*
D12*
X85713633Y-71239178D03*
D11*
X85713633Y-72739178D03*
D13*
X87125388Y-58270359D03*
X90525388Y-58270359D03*
%TD*%
D10*
%TO.C,SW13*%
X24030000Y-64135000D03*
X36957000Y-61595000D03*
D11*
X33663633Y-72739178D03*
X33663633Y-71239178D03*
D12*
X28563633Y-71239178D03*
D11*
X28563633Y-72739178D03*
D13*
X29975388Y-58270359D03*
X33375388Y-58270359D03*
%TD*%
D10*
%TO.C,SW9*%
X62130000Y-45085000D03*
X75057000Y-42545000D03*
D11*
X71763633Y-53689178D03*
X71763633Y-52189178D03*
D12*
X66663633Y-52189178D03*
D11*
X66663633Y-53689178D03*
D13*
X68075388Y-39220359D03*
X71475388Y-39220359D03*
%TD*%
D10*
%TO.C,SW26*%
X43080000Y-102235000D03*
X56007000Y-99695000D03*
D11*
X52713633Y-110839178D03*
X52713633Y-109339178D03*
D12*
X47613633Y-109339178D03*
D11*
X47613633Y-110839178D03*
D13*
X49025388Y-96370359D03*
X52425388Y-96370359D03*
%TD*%
D10*
%TO.C,SW1*%
X24030000Y-26035000D03*
X36957000Y-23495000D03*
D11*
X33663633Y-34639178D03*
X33663633Y-33139178D03*
D12*
X28563633Y-33139178D03*
D11*
X28563633Y-34639178D03*
D13*
X29975388Y-20170359D03*
X33375388Y-20170359D03*
%TD*%
%TO.C,SW5*%
X106049391Y-20035080D03*
X102649391Y-20035080D03*
D11*
X104763633Y-34639178D03*
D12*
X104763633Y-33139178D03*
D11*
X109863633Y-33139178D03*
X109863633Y-34639178D03*
D10*
X113157000Y-23495000D03*
X100230000Y-26035000D03*
%TD*%
%TO.C,SW7*%
X24061832Y-45085000D03*
X36988832Y-42545000D03*
D11*
X33695465Y-53689178D03*
X33695465Y-52189178D03*
D12*
X28595465Y-52189178D03*
D11*
X28595465Y-53689178D03*
D13*
X30007220Y-39220359D03*
X33407220Y-39220359D03*
%TD*%
D10*
%TO.C,SW17*%
X100230000Y-64135000D03*
X113157000Y-61595000D03*
D11*
X109863633Y-72739178D03*
X109863633Y-71239178D03*
D12*
X104763633Y-71239178D03*
D11*
X104763633Y-72739178D03*
D13*
X106175388Y-58270359D03*
X109575388Y-58270359D03*
%TD*%
D10*
%TO.C,SW22*%
X81180000Y-83185000D03*
X94107000Y-80645000D03*
D11*
X90813633Y-91789178D03*
X90813633Y-90289178D03*
D12*
X85713633Y-90289178D03*
D11*
X85713633Y-91789178D03*
D13*
X87125388Y-77320359D03*
X90525388Y-77320359D03*
%TD*%
D10*
%TO.C,SW19*%
X24030000Y-83185000D03*
X36957000Y-80645000D03*
D11*
X33663633Y-91789178D03*
X33663633Y-90289178D03*
D12*
X28563633Y-90289178D03*
D11*
X28563633Y-91789178D03*
D13*
X29975388Y-77320359D03*
X33375388Y-77320359D03*
%TD*%
D10*
%TO.C,SW15*%
X62130000Y-64135000D03*
X75057000Y-61595000D03*
D11*
X71763633Y-72739178D03*
X71763633Y-71239178D03*
D12*
X66663633Y-71239178D03*
D11*
X66663633Y-72739178D03*
D13*
X68075388Y-58270359D03*
X71475388Y-58270359D03*
%TD*%
D10*
%TO.C,SW2*%
X43080000Y-26035000D03*
X56007000Y-23495000D03*
D11*
X52713633Y-34639178D03*
X52713633Y-33139178D03*
D12*
X47613633Y-33139178D03*
D11*
X47613633Y-34639178D03*
D13*
X49025388Y-20170359D03*
X52425388Y-20170359D03*
%TD*%
D10*
%TO.C,SW4*%
X81180000Y-26035000D03*
X94107000Y-23495000D03*
D11*
X90813633Y-34639178D03*
X90813633Y-33139178D03*
D12*
X85713633Y-33139178D03*
D11*
X85713633Y-34639178D03*
D13*
X87125388Y-20170359D03*
X90525388Y-20170359D03*
%TD*%
D10*
%TO.C,SW30*%
X119280000Y-102235000D03*
X132207000Y-99695000D03*
D11*
X128913633Y-110839178D03*
X128913633Y-109339178D03*
D12*
X123813633Y-109339178D03*
D11*
X123813633Y-110839178D03*
D13*
X125225388Y-96370359D03*
X128625388Y-96370359D03*
%TD*%
D10*
%TO.C,SW14*%
X43080000Y-64135000D03*
X56007000Y-61595000D03*
D11*
X52713633Y-72739178D03*
X52713633Y-71239178D03*
D12*
X47613633Y-71239178D03*
D11*
X47613633Y-72739178D03*
D13*
X49025388Y-58270359D03*
X52425388Y-58270359D03*
%TD*%
D10*
%TO.C,SW8*%
X43080000Y-45085000D03*
X56007000Y-42545000D03*
D11*
X52713633Y-53689178D03*
X52713633Y-52189178D03*
D12*
X47613633Y-52189178D03*
D11*
X47613633Y-53689178D03*
D13*
X49025388Y-39220359D03*
X52425388Y-39220359D03*
%TD*%
D10*
%TO.C,SW24*%
X119280000Y-83185000D03*
X132207000Y-80645000D03*
D11*
X128913633Y-91789178D03*
X128913633Y-90289178D03*
D12*
X123813633Y-90289178D03*
D11*
X123813633Y-91789178D03*
D13*
X125225388Y-77320359D03*
X128625388Y-77320359D03*
%TD*%
D10*
%TO.C,SW3*%
X62130000Y-26035000D03*
X75057000Y-23495000D03*
D11*
X71763633Y-34639178D03*
X71763633Y-33139178D03*
D12*
X66663633Y-33139178D03*
D11*
X66663633Y-34639178D03*
D13*
X68075388Y-20170359D03*
X71475388Y-20170359D03*
%TD*%
D10*
%TO.C,SW27*%
X62130000Y-102235000D03*
X75057000Y-99695000D03*
D11*
X71763633Y-110839178D03*
X71763633Y-109339178D03*
D12*
X66663633Y-109339178D03*
D11*
X66663633Y-110839178D03*
D13*
X68075388Y-96370359D03*
X71475388Y-96370359D03*
%TD*%
D10*
%TO.C,SW18*%
X119280000Y-64135000D03*
X132207000Y-61595000D03*
D11*
X128913633Y-72739178D03*
X128913633Y-71239178D03*
D12*
X123813633Y-71239178D03*
D11*
X123813633Y-72739178D03*
D13*
X125225388Y-58270359D03*
X128625388Y-58270359D03*
%TD*%
D10*
%TO.C,SW28*%
X81180000Y-102235000D03*
X94107000Y-99695000D03*
D11*
X90813633Y-110839178D03*
X90813633Y-109339178D03*
D12*
X85713633Y-109339178D03*
D11*
X85713633Y-110839178D03*
D13*
X87125388Y-96370359D03*
X90525388Y-96370359D03*
%TD*%
D10*
%TO.C,SW11*%
X100230000Y-45085000D03*
X113157000Y-42545000D03*
D11*
X109863633Y-53689178D03*
X109863633Y-52189178D03*
D12*
X104763633Y-52189178D03*
D11*
X104763633Y-53689178D03*
D13*
X106175388Y-39220359D03*
X109575388Y-39220359D03*
%TD*%
D10*
%TO.C,SW23*%
X100230000Y-83185000D03*
X113157000Y-80645000D03*
D11*
X109863633Y-91789178D03*
X109863633Y-90289178D03*
D12*
X104763633Y-90289178D03*
D11*
X104763633Y-91789178D03*
D13*
X106175388Y-77320359D03*
X109575388Y-77320359D03*
%TD*%
D10*
%TO.C,SW10*%
X81180000Y-45085000D03*
X94107000Y-42545000D03*
D11*
X90813633Y-53689178D03*
X90813633Y-52189178D03*
D12*
X85713633Y-52189178D03*
D11*
X85713633Y-53689178D03*
D13*
X87125388Y-39220359D03*
X90525388Y-39220359D03*
%TD*%
D10*
%TO.C,SW29*%
X100230000Y-102235000D03*
X113157000Y-99695000D03*
D11*
X109863633Y-110839178D03*
X109863633Y-109339178D03*
D12*
X104763633Y-109339178D03*
D11*
X104763633Y-110839178D03*
D13*
X106175388Y-96370359D03*
X109575388Y-96370359D03*
%TD*%
D10*
%TO.C,SW20*%
X43080000Y-83185000D03*
X56007000Y-80645000D03*
D11*
X52713633Y-91789178D03*
X52713633Y-90289178D03*
D12*
X47613633Y-90289178D03*
D11*
X47613633Y-91789178D03*
D13*
X49025388Y-77320359D03*
X52425388Y-77320359D03*
%TD*%
D10*
%TO.C,SW25*%
X24030000Y-102235000D03*
X36957000Y-99695000D03*
D11*
X33663633Y-110839178D03*
X33663633Y-109339178D03*
D12*
X28563633Y-109339178D03*
D11*
X28563633Y-110839178D03*
D13*
X29975388Y-96370359D03*
X33375388Y-96370359D03*
%TD*%
D14*
%TO.C,R1*%
X24690000Y-31480000D03*
X24690000Y-34580000D03*
%TD*%
D15*
%TO.C,BatSW1*%
X109110000Y-15660000D03*
X109110000Y-17760000D03*
X116010000Y-15660000D03*
X116010000Y-17760000D03*
D16*
X110310000Y-18560000D03*
X113310000Y-18560000D03*
X114810000Y-18560000D03*
%TD*%
D17*
%TO.C,J1*%
X134510000Y-54220000D03*
D18*
X134510000Y-56240000D03*
D19*
X134510000Y-57470000D03*
D17*
X134510000Y-55220000D03*
D18*
X134510000Y-53200000D03*
D19*
X134510000Y-51970000D03*
%TD*%
D20*
%TO.C,rst1*%
X137475395Y-27237625D03*
X137475395Y-23837625D03*
%TD*%
D21*
%TO.C,R2*%
X136650000Y-35410000D03*
X136650000Y-32310000D03*
%TD*%
D22*
%TO.C,D1*%
X126363663Y-33369915D03*
X126363663Y-29969915D03*
%TD*%
D13*
%TO.C,D2*%
X127906250Y-42862500D03*
X124506250Y-42862500D03*
%TD*%
D21*
%TO.C,R3*%
X139200000Y-35410000D03*
X139200000Y-32310000D03*
%TD*%
M02*
